<svg width="64" height="64" viewBox="0 0 64 64" fill="none" xmlns="http://www.w3.org/2000/svg">
<rect x="0.5" y="0.5" width="63" height="63" rx="31.5" fill="#EDEDED"/>
<rect x="0.5" y="0.5" width="63" height="63" rx="31.5" stroke="#BFBFBF"/>
<path d="M30.667 45.3335C29.5761 45.3335 28.5339 44.8933 26.4496 44.0128C21.2612 41.8211 18.667 40.7252 18.667 38.8819C18.667 38.3658 18.667 29.4195 18.667 25.3335M30.667 45.3335L30.667 31.1399M30.667 45.3335C31.6334 45.3335 32.3909 44.988 34.0003 44.297M42.667 25.3335V30.6668" stroke="#666666" stroke-width="2" stroke-linecap="round" stroke-linejoin="round"/>
<path d="M36 39.3337H45.3333M40.6667 44.0003L40.6667 34.667" stroke="#666666" stroke-width="2" stroke-linecap="round"/>
<path d="M25.7682 28.9222L21.8733 27.0375C19.7358 26.0031 18.667 25.486 18.667 24.667C18.667 23.848 19.7358 23.3309 21.8733 22.2965L25.7682 20.4118C28.1721 19.2486 29.3741 18.667 30.667 18.667C31.9599 18.667 33.1619 19.2486 35.5658 20.4118L39.4607 22.2965C41.5982 23.3309 42.667 23.848 42.667 24.667C42.667 25.486 41.5982 26.0031 39.4607 27.0375L35.5658 28.9222C33.1619 30.0854 31.9599 30.667 30.667 30.667C29.3741 30.667 28.1721 30.0854 25.7682 28.9222Z" stroke="#666666" stroke-width="2" stroke-linecap="round" stroke-linejoin="round"/>
<path d="M22.667 32L25.3337 33.3333" stroke="#666666" stroke-width="2" stroke-linecap="round" stroke-linejoin="round"/>
<path d="M37.3333 21.3335L24 28.0002" stroke="#666666" stroke-width="2" stroke-linecap="round" stroke-linejoin="round"/>
</svg>
