<svg width="484" height="49" viewBox="0 0 484 49" fill="none" xmlns="http://www.w3.org/2000/svg">
<g filter="url(#filter0_di_627_331)">
<path d="M7.5 20.5C7.5 10.835 15.335 3 25 3H459C468.665 3 476.5 10.835 476.5 20.5C476.5 30.165 468.665 38 459 38H25C15.335 38 7.5 30.165 7.5 20.5Z" fill="white" shape-rendering="crispEdges"/>
<path d="M8 20.5C8 11.1112 15.6112 3.5 25 3.5H459C468.389 3.5 476 11.1112 476 20.5C476 29.8888 468.389 37.5 459 37.5H25C15.6112 37.5 8 29.8888 8 20.5Z" stroke="#D2D6D9" shape-rendering="crispEdges"/>
<circle cx="43.5" cy="20.5" r="4" fill="#1A2B3B"/>
<path d="M63.059 26H56.885V15.878H63.059V17.138H58.257V20.302H62.583V21.52H58.257V24.726H63.059V26ZM65.5231 26H64.0111L66.4051 22.612L64.0251 19.154H65.5511L67.2871 21.702L68.9811 19.154H70.4791L68.0991 22.612L70.4371 26H68.9111L67.2031 23.494L65.5231 26ZM71.577 29.066V19.154H72.767L72.865 20.386C73.327 19.448 74.251 18.958 75.343 18.958C77.303 18.958 78.521 20.428 78.521 22.528C78.521 24.614 77.373 26.182 75.343 26.182C74.251 26.182 73.341 25.72 72.893 24.88V29.066H71.577ZM72.907 22.584C72.907 23.984 73.719 24.992 75.063 24.992C76.407 24.992 77.205 23.984 77.205 22.584C77.205 21.17 76.407 20.162 75.063 20.162C73.719 20.162 72.907 21.156 72.907 22.584ZM82.9255 26.168C80.9095 26.168 79.5235 24.712 79.5235 22.584C79.5235 20.442 80.8815 18.958 82.8695 18.958C84.8155 18.958 86.0895 20.302 86.0895 22.332V22.822L80.7975 22.836C80.8955 24.278 81.6515 25.076 82.9535 25.076C83.9755 25.076 84.6475 24.656 84.8715 23.872H86.1035C85.7675 25.342 84.6195 26.168 82.9255 26.168ZM82.8695 20.064C81.7215 20.064 80.9935 20.75 80.8255 21.954H84.7735C84.7735 20.82 84.0315 20.064 82.8695 20.064ZM91.4794 19.098V20.302H90.8914C89.6454 20.302 88.8754 21.058 88.8754 22.374V26H87.5594V19.168H88.7914L88.8754 20.204C89.1554 19.49 89.8414 19.014 90.7794 19.014C91.0174 19.014 91.2134 19.042 91.4794 19.098ZM93.3577 17.53C92.8817 17.53 92.4897 17.138 92.4897 16.662C92.4897 16.172 92.8817 15.794 93.3577 15.794C93.8337 15.794 94.2257 16.172 94.2257 16.662C94.2257 17.138 93.8337 17.53 93.3577 17.53ZM92.7137 26V19.154H94.0297V26H92.7137ZM98.8943 26.168C96.8783 26.168 95.4923 24.712 95.4923 22.584C95.4923 20.442 96.8503 18.958 98.8383 18.958C100.784 18.958 102.058 20.302 102.058 22.332V22.822L96.7663 22.836C96.8643 24.278 97.6203 25.076 98.9223 25.076C99.9443 25.076 100.616 24.656 100.84 23.872H102.072C101.736 25.342 100.588 26.168 98.8943 26.168ZM98.8383 20.064C97.6903 20.064 96.9623 20.75 96.7943 21.954H100.742C100.742 20.82 100 20.064 98.8383 20.064ZM104.844 26H103.528V19.154H104.718L104.858 20.204C105.292 19.42 106.16 18.958 107.126 18.958C108.932 18.958 109.758 20.064 109.758 21.814V26H108.442V22.108C108.442 20.722 107.798 20.162 106.79 20.162C105.558 20.162 104.844 21.044 104.844 22.374V26ZM111.133 22.584C111.133 20.442 112.491 18.958 114.493 18.958C116.215 18.958 117.419 19.938 117.657 21.464H116.341C116.117 20.596 115.417 20.134 114.535 20.134C113.289 20.134 112.435 21.086 112.435 22.57C112.435 24.04 113.233 24.992 114.479 24.992C115.417 24.992 116.117 24.502 116.355 23.69H117.671C117.405 25.174 116.131 26.168 114.479 26.168C112.463 26.168 111.133 24.74 111.133 22.584ZM122.013 26.168C119.997 26.168 118.611 24.712 118.611 22.584C118.611 20.442 119.969 18.958 121.957 18.958C123.903 18.958 125.177 20.302 125.177 22.332V22.822L119.885 22.836C119.983 24.278 120.739 25.076 122.041 25.076C123.063 25.076 123.735 24.656 123.959 23.872H125.191C124.855 25.342 123.707 26.168 122.013 26.168ZM121.957 20.064C120.809 20.064 120.081 20.75 119.913 21.954H123.861C123.861 20.82 123.119 20.064 121.957 20.064ZM129.915 24.012H131.175C131.175 24.712 131.707 25.132 132.575 25.132C133.499 25.132 134.031 24.754 134.031 24.124C134.031 23.662 133.807 23.382 133.093 23.2L131.889 22.92C130.671 22.626 130.097 22.024 130.097 21.016C130.097 19.756 131.161 18.958 132.673 18.958C134.171 18.958 135.151 19.798 135.179 21.1H133.919C133.891 20.414 133.429 19.98 132.631 19.98C131.805 19.98 131.343 20.344 131.343 20.974C131.343 21.436 131.679 21.744 132.351 21.912L133.555 22.206C134.717 22.486 135.291 23.018 135.291 24.04C135.291 25.342 134.171 26.168 132.547 26.168C130.937 26.168 129.915 25.314 129.915 24.012ZM139.705 26.168C137.689 26.168 136.303 24.712 136.303 22.584C136.303 20.442 137.661 18.958 139.649 18.958C141.595 18.958 142.869 20.302 142.869 22.332V22.822L137.577 22.836C137.675 24.278 138.431 25.076 139.733 25.076C140.755 25.076 141.427 24.656 141.651 23.872H142.883C142.547 25.342 141.399 26.168 139.705 26.168ZM139.649 20.064C138.501 20.064 137.773 20.75 137.605 21.954H141.553C141.553 20.82 140.811 20.064 139.649 20.064ZM146.272 26.168C144.802 26.168 143.934 25.342 143.934 24.096C143.934 22.836 144.872 22.052 146.482 21.926L148.638 21.758V21.562C148.638 20.414 147.952 20.008 147.028 20.008C145.922 20.008 145.292 20.498 145.292 21.324H144.144C144.144 19.896 145.32 18.958 147.084 18.958C148.778 18.958 149.926 19.854 149.926 21.702V26H148.806L148.666 24.894C148.316 25.678 147.378 26.168 146.272 26.168ZM146.65 25.146C147.896 25.146 148.652 24.334 148.652 23.046V22.682L146.902 22.822C145.74 22.934 145.264 23.382 145.264 24.054C145.264 24.782 145.796 25.146 146.65 25.146ZM153.065 26H151.749V19.154H152.925L153.051 20.05C153.401 19.406 154.129 18.958 155.095 18.958C156.159 18.958 156.915 19.49 157.265 20.344C157.587 19.49 158.413 18.958 159.477 18.958C161.045 18.958 161.997 19.938 161.997 21.52V26H160.709V21.842C160.709 20.764 160.107 20.148 159.183 20.148C158.189 20.148 157.531 20.848 157.531 21.94V26H156.229V21.828C156.229 20.75 155.641 20.162 154.717 20.162C153.723 20.162 153.065 20.848 153.065 21.94V26ZM165.165 26H163.849V15.696H165.165V26ZM170.056 26.168C168.04 26.168 166.654 24.712 166.654 22.584C166.654 20.442 168.012 18.958 170 18.958C171.946 18.958 173.22 20.302 173.22 22.332V22.822L167.928 22.836C168.026 24.278 168.782 25.076 170.084 25.076C171.106 25.076 171.778 24.656 172.002 23.872H173.234C172.898 25.342 171.75 26.168 170.056 26.168ZM170 20.064C168.852 20.064 168.124 20.75 167.956 21.954H171.904C171.904 20.82 171.162 20.064 170 20.064ZM174.13 24.012H175.39C175.39 24.712 175.922 25.132 176.79 25.132C177.714 25.132 178.246 24.754 178.246 24.124C178.246 23.662 178.022 23.382 177.308 23.2L176.104 22.92C174.886 22.626 174.312 22.024 174.312 21.016C174.312 19.756 175.376 18.958 176.888 18.958C178.386 18.958 179.366 19.798 179.394 21.1H178.134C178.106 20.414 177.644 19.98 176.846 19.98C176.02 19.98 175.558 20.344 175.558 20.974C175.558 21.436 175.894 21.744 176.566 21.912L177.77 22.206C178.932 22.486 179.506 23.018 179.506 24.04C179.506 25.342 178.386 26.168 176.762 26.168C175.152 26.168 174.13 25.314 174.13 24.012ZM180.406 24.012H181.666C181.666 24.712 182.198 25.132 183.066 25.132C183.99 25.132 184.522 24.754 184.522 24.124C184.522 23.662 184.298 23.382 183.584 23.2L182.38 22.92C181.162 22.626 180.588 22.024 180.588 21.016C180.588 19.756 181.652 18.958 183.164 18.958C184.662 18.958 185.642 19.798 185.67 21.1H184.41C184.382 20.414 183.92 19.98 183.122 19.98C182.296 19.98 181.834 20.344 181.834 20.974C181.834 21.436 182.17 21.744 182.842 21.912L184.046 22.206C185.208 22.486 185.782 23.018 185.782 24.04C185.782 25.342 184.662 26.168 183.038 26.168C181.428 26.168 180.406 25.314 180.406 24.012ZM190.509 24.012H191.769C191.769 24.712 192.301 25.132 193.169 25.132C194.093 25.132 194.625 24.754 194.625 24.124C194.625 23.662 194.401 23.382 193.687 23.2L192.483 22.92C191.265 22.626 190.691 22.024 190.691 21.016C190.691 19.756 191.755 18.958 193.267 18.958C194.765 18.958 195.745 19.798 195.773 21.1H194.513C194.485 20.414 194.023 19.98 193.225 19.98C192.399 19.98 191.937 20.344 191.937 20.974C191.937 21.436 192.273 21.744 192.945 21.912L194.149 22.206C195.311 22.486 195.885 23.018 195.885 24.04C195.885 25.342 194.765 26.168 193.141 26.168C191.531 26.168 190.509 25.314 190.509 24.012ZM202.077 19.154H203.379V26H202.203L202.063 24.964C201.671 25.678 200.761 26.168 199.753 26.168C198.157 26.168 197.261 25.09 197.261 23.41V19.154H198.577V22.976C198.577 24.446 199.207 25.006 200.215 25.006C201.419 25.006 202.077 24.236 202.077 22.766V19.154ZM205.288 29.066V19.154H206.478L206.576 20.386C207.038 19.448 207.962 18.958 209.054 18.958C211.014 18.958 212.232 20.428 212.232 22.528C212.232 24.614 211.084 26.182 209.054 26.182C207.962 26.182 207.052 25.72 206.604 24.88V29.066H205.288ZM206.618 22.584C206.618 23.984 207.43 24.992 208.774 24.992C210.118 24.992 210.916 23.984 210.916 22.584C210.916 21.17 210.118 20.162 208.774 20.162C207.43 20.162 206.618 21.156 206.618 22.584ZM213.682 29.066V19.154H214.872L214.97 20.386C215.432 19.448 216.356 18.958 217.448 18.958C219.408 18.958 220.626 20.428 220.626 22.528C220.626 24.614 219.478 26.182 217.448 26.182C216.356 26.182 215.446 25.72 214.998 24.88V29.066H213.682ZM215.012 22.584C215.012 23.984 215.824 24.992 217.168 24.992C218.512 24.992 219.31 23.984 219.31 22.584C219.31 21.17 218.512 20.162 217.168 20.162C215.824 20.162 215.012 21.156 215.012 22.584ZM223.421 26H222.105V15.696H223.421V26ZM224.7 29.066V27.988H225.582C226.212 27.988 226.716 27.89 227.038 27.022L227.276 26.364L224.518 19.154H225.904L227.892 24.67L229.922 19.154H231.28L228.046 27.54C227.584 28.716 226.898 29.206 225.848 29.206C225.414 29.206 225.05 29.15 224.7 29.066ZM235.711 22.584C235.711 20.442 237.069 18.958 239.071 18.958C240.793 18.958 241.997 19.938 242.235 21.464H240.919C240.695 20.596 239.995 20.134 239.113 20.134C237.867 20.134 237.013 21.086 237.013 22.57C237.013 24.04 237.811 24.992 239.057 24.992C239.995 24.992 240.695 24.502 240.933 23.69H242.249C241.983 25.174 240.709 26.168 239.057 26.168C237.041 26.168 235.711 24.74 235.711 22.584ZM244.954 25.986H243.638V15.696H244.954V20.204C245.388 19.462 246.214 18.958 247.278 18.958C249.028 18.958 249.868 20.064 249.868 21.814V26H248.552V22.108C248.552 20.722 247.894 20.162 246.914 20.162C245.64 20.162 244.954 21.086 244.954 22.262V25.986ZM253.692 26.168C252.222 26.168 251.354 25.342 251.354 24.096C251.354 22.836 252.292 22.052 253.902 21.926L256.058 21.758V21.562C256.058 20.414 255.372 20.008 254.448 20.008C253.342 20.008 252.712 20.498 252.712 21.324H251.564C251.564 19.896 252.74 18.958 254.504 18.958C256.198 18.958 257.346 19.854 257.346 21.702V26H256.226L256.086 24.894C255.736 25.678 254.798 26.168 253.692 26.168ZM254.07 25.146C255.316 25.146 256.072 24.334 256.072 23.046V22.682L254.322 22.822C253.16 22.934 252.684 23.382 252.684 24.054C252.684 24.782 253.216 25.146 254.07 25.146ZM259.813 17.53C259.337 17.53 258.945 17.138 258.945 16.662C258.945 16.172 259.337 15.794 259.813 15.794C260.289 15.794 260.681 16.172 260.681 16.662C260.681 17.138 260.289 17.53 259.813 17.53ZM259.169 26V19.154H260.485V26H259.169ZM263.711 26H262.395V19.154H263.585L263.725 20.204C264.159 19.42 265.027 18.958 265.993 18.958C267.799 18.958 268.625 20.064 268.625 21.814V26H267.309V22.108C267.309 20.722 266.665 20.162 265.657 20.162C264.425 20.162 263.711 21.044 263.711 22.374V26ZM276.194 26L273.436 19.154H274.836L276.334 22.976C276.572 23.62 276.768 24.194 276.88 24.614C276.992 24.166 277.216 23.578 277.454 22.976L278.98 19.154H280.352L277.496 26H276.194ZM282.043 17.53C281.567 17.53 281.175 17.138 281.175 16.662C281.175 16.172 281.567 15.794 282.043 15.794C282.519 15.794 282.911 16.172 282.911 16.662C282.911 17.138 282.519 17.53 282.043 17.53ZM281.399 26V19.154H282.715V26H281.399ZM284.066 24.012H285.326C285.326 24.712 285.858 25.132 286.726 25.132C287.65 25.132 288.182 24.754 288.182 24.124C288.182 23.662 287.958 23.382 287.244 23.2L286.04 22.92C284.822 22.626 284.248 22.024 284.248 21.016C284.248 19.756 285.312 18.958 286.824 18.958C288.322 18.958 289.302 19.798 289.33 21.1H288.07C288.042 20.414 287.58 19.98 286.782 19.98C285.956 19.98 285.494 20.344 285.494 20.974C285.494 21.436 285.83 21.744 286.502 21.912L287.706 22.206C288.868 22.486 289.442 23.018 289.442 24.04C289.442 25.342 288.322 26.168 286.698 26.168C285.088 26.168 284.066 25.314 284.066 24.012ZM291.545 17.53C291.069 17.53 290.677 17.138 290.677 16.662C290.677 16.172 291.069 15.794 291.545 15.794C292.021 15.794 292.413 16.172 292.413 16.662C292.413 17.138 292.021 17.53 291.545 17.53ZM290.901 26V19.154H292.217V26H290.901ZM295.318 26H294.128V15.696H295.444V20.33C295.892 19.434 296.816 18.958 297.936 18.958C299.896 18.958 301.072 20.498 301.072 22.612C301.072 24.684 299.84 26.168 297.852 26.168C296.774 26.168 295.864 25.692 295.416 24.754L295.318 26ZM295.458 22.556C295.458 23.984 296.27 24.978 297.614 24.978C298.958 24.978 299.756 23.97 299.756 22.556C299.756 21.156 298.958 20.148 297.614 20.148C296.27 20.148 295.458 21.156 295.458 22.556ZM303.166 17.53C302.69 17.53 302.298 17.138 302.298 16.662C302.298 16.172 302.69 15.794 303.166 15.794C303.642 15.794 304.034 16.172 304.034 16.662C304.034 17.138 303.642 17.53 303.166 17.53ZM302.522 26V19.154H303.838V26H302.522ZM307.093 26H305.777V15.696H307.093V26ZM309.674 17.53C309.198 17.53 308.806 17.138 308.806 16.662C308.806 16.172 309.198 15.794 309.674 15.794C310.15 15.794 310.542 16.172 310.542 16.662C310.542 17.138 310.15 17.53 309.674 17.53ZM309.03 26V19.154H310.346V26H309.03ZM314.189 26H312.873V20.26H311.529V19.154H312.873V17.012H314.189V19.154H315.533V20.26H314.189V26ZM316.056 29.066V27.988H316.938C317.568 27.988 318.072 27.89 318.394 27.022L318.632 26.364L315.874 19.154H317.26L319.248 24.67L321.278 19.154H322.636L319.402 27.54C318.94 28.716 318.254 29.206 317.204 29.206C316.77 29.206 316.406 29.15 316.056 29.066ZM329.517 26.168C328.047 26.168 327.179 25.342 327.179 24.096C327.179 22.836 328.117 22.052 329.727 21.926L331.883 21.758V21.562C331.883 20.414 331.197 20.008 330.273 20.008C329.167 20.008 328.537 20.498 328.537 21.324H327.389C327.389 19.896 328.565 18.958 330.329 18.958C332.023 18.958 333.171 19.854 333.171 21.702V26H332.051L331.911 24.894C331.561 25.678 330.623 26.168 329.517 26.168ZM329.895 25.146C331.141 25.146 331.897 24.334 331.897 23.046V22.682L330.147 22.822C328.985 22.934 328.509 23.382 328.509 24.054C328.509 24.782 329.041 25.146 329.895 25.146ZM336.309 26H334.993V19.154H336.183L336.323 20.204C336.757 19.42 337.625 18.958 338.591 18.958C340.397 18.958 341.223 20.064 341.223 21.814V26H339.907V22.108C339.907 20.722 339.263 20.162 338.255 20.162C337.023 20.162 336.309 21.044 336.309 22.374V26ZM345.79 26.168C343.802 26.168 342.598 24.684 342.598 22.598C342.598 20.498 343.816 18.958 345.846 18.958C346.896 18.958 347.778 19.42 348.24 20.26V15.696H349.542V26H348.366L348.254 24.754C347.806 25.692 346.882 26.168 345.79 26.168ZM346.056 24.978C347.4 24.978 348.226 23.984 348.226 22.556C348.226 21.156 347.4 20.148 346.056 20.148C344.712 20.148 343.928 21.156 343.928 22.556C343.928 23.97 344.712 24.978 346.056 24.978ZM357.27 26.168C355.8 26.168 354.932 25.342 354.932 24.096C354.932 22.836 355.87 22.052 357.48 21.926L359.636 21.758V21.562C359.636 20.414 358.95 20.008 358.026 20.008C356.92 20.008 356.29 20.498 356.29 21.324H355.142C355.142 19.896 356.318 18.958 358.082 18.958C359.776 18.958 360.924 19.854 360.924 21.702V26H359.804L359.664 24.894C359.314 25.678 358.376 26.168 357.27 26.168ZM357.648 25.146C358.894 25.146 359.65 24.334 359.65 23.046V22.682L357.9 22.822C356.738 22.934 356.262 23.382 356.262 24.054C356.262 24.782 356.794 25.146 357.648 25.146ZM367.479 19.154H368.781V26H367.605L367.465 24.964C367.073 25.678 366.163 26.168 365.155 26.168C363.559 26.168 362.663 25.09 362.663 23.41V19.154H363.979V22.976C363.979 24.446 364.609 25.006 365.617 25.006C366.821 25.006 367.479 24.236 367.479 22.766V19.154ZM372.622 26H371.306V20.26H369.962V19.154H371.306V17.012H372.622V19.154H373.966V20.26H372.622V26ZM376.463 25.986H375.147V15.696H376.463V20.204C376.897 19.462 377.723 18.958 378.787 18.958C380.537 18.958 381.377 20.064 381.377 21.814V26H380.061V22.108C380.061 20.722 379.403 20.162 378.423 20.162C377.149 20.162 376.463 21.086 376.463 22.262V25.986ZM386.154 26.168C384.138 26.168 382.752 24.712 382.752 22.584C382.752 20.442 384.11 18.958 386.098 18.958C388.044 18.958 389.318 20.302 389.318 22.332V22.822L384.026 22.836C384.124 24.278 384.88 25.076 386.182 25.076C387.204 25.076 387.876 24.656 388.1 23.872H389.332C388.996 25.342 387.848 26.168 386.154 26.168ZM386.098 20.064C384.95 20.064 384.222 20.75 384.054 21.954H388.002C388.002 20.82 387.26 20.064 386.098 20.064ZM392.104 26H390.788V19.154H391.978L392.118 20.204C392.552 19.42 393.42 18.958 394.386 18.958C396.192 18.958 397.018 20.064 397.018 21.814V26H395.702V22.108C395.702 20.722 395.058 20.162 394.05 20.162C392.818 20.162 392.104 21.044 392.104 22.374V26ZM400.773 26H399.457V20.26H398.113V19.154H399.457V17.012H400.773V19.154H402.117V20.26H400.773V26ZM403.942 17.53C403.466 17.53 403.074 17.138 403.074 16.662C403.074 16.172 403.466 15.794 403.942 15.794C404.418 15.794 404.81 16.172 404.81 16.662C404.81 17.138 404.418 17.53 403.942 17.53ZM403.298 26V19.154H404.614V26H403.298ZM406.076 22.584C406.076 20.442 407.434 18.958 409.436 18.958C411.158 18.958 412.362 19.938 412.6 21.464H411.284C411.06 20.596 410.36 20.134 409.478 20.134C408.232 20.134 407.378 21.086 407.378 22.57C407.378 24.04 408.176 24.992 409.422 24.992C410.36 24.992 411.06 24.502 411.298 23.69H412.614C412.348 25.174 411.074 26.168 409.422 26.168C407.406 26.168 406.076 24.74 406.076 22.584ZM416.005 26.168C414.535 26.168 413.667 25.342 413.667 24.096C413.667 22.836 414.605 22.052 416.215 21.926L418.371 21.758V21.562C418.371 20.414 417.685 20.008 416.761 20.008C415.655 20.008 415.025 20.498 415.025 21.324H413.877C413.877 19.896 415.053 18.958 416.817 18.958C418.511 18.958 419.659 19.854 419.659 21.702V26H418.539L418.399 24.894C418.049 25.678 417.111 26.168 416.005 26.168ZM416.383 25.146C417.629 25.146 418.385 24.334 418.385 23.046V22.682L416.635 22.822C415.473 22.934 414.997 23.382 414.997 24.054C414.997 24.782 415.529 25.146 416.383 25.146ZM423.304 26H421.988V20.26H420.644V19.154H421.988V17.012H423.304V19.154H424.648V20.26H423.304V26ZM426.473 17.53C425.997 17.53 425.605 17.138 425.605 16.662C425.605 16.172 425.997 15.794 426.473 15.794C426.949 15.794 427.341 16.172 427.341 16.662C427.341 17.138 426.949 17.53 426.473 17.53ZM425.829 26V19.154H427.145V26H425.829ZM428.608 22.57C428.608 20.456 430.12 18.972 432.178 18.972C434.222 18.972 435.734 20.456 435.734 22.57C435.734 24.684 434.222 26.168 432.178 26.168C430.12 26.168 428.608 24.684 428.608 22.57ZM429.938 22.57C429.938 23.998 430.848 24.992 432.178 24.992C433.494 24.992 434.418 23.998 434.418 22.57C434.418 21.142 433.494 20.148 432.178 20.148C430.848 20.148 429.938 21.142 429.938 22.57ZM438.506 26H437.19V19.154H438.38L438.52 20.204C438.954 19.42 439.822 18.958 440.788 18.958C442.594 18.958 443.42 20.064 443.42 21.814V26H442.104V22.108C442.104 20.722 441.46 20.162 440.452 20.162C439.22 20.162 438.506 21.044 438.506 22.374V26Z" fill="#56616B"/>
</g>
<defs>
<filter id="filter0_di_627_331" x="0.5" y="-5" width="483" height="54" filterUnits="userSpaceOnUse" color-interpolation-filters="sRGB">
<feFlood flood-opacity="0" result="BackgroundImageFix"/>
<feColorMatrix in="SourceAlpha" type="matrix" values="0 0 0 0 0 0 0 0 0 0 0 0 0 0 0 0 0 0 127 0" result="hardAlpha"/>
<feMorphology radius="3" operator="dilate" in="SourceAlpha" result="effect1_dropShadow_627_331"/>
<feOffset dy="4"/>
<feGaussianBlur stdDeviation="2"/>
<feComposite in2="hardAlpha" operator="out"/>
<feColorMatrix type="matrix" values="0 0 0 0 0.66 0 0 0 0 0.785714 0 0 0 0 0.9 0 0 0 0.2 0"/>
<feBlend mode="normal" in2="BackgroundImageFix" result="effect1_dropShadow_627_331"/>
<feBlend mode="normal" in="SourceGraphic" in2="effect1_dropShadow_627_331" result="shape"/>
<feColorMatrix in="SourceAlpha" type="matrix" values="0 0 0 0 0 0 0 0 0 0 0 0 0 0 0 0 0 0 127 0" result="hardAlpha"/>
<feMorphology radius="4" operator="erode" in="SourceAlpha" result="effect2_innerShadow_627_331"/>
<feOffset dy="-8"/>
<feGaussianBlur stdDeviation="5"/>
<feComposite in2="hardAlpha" operator="arithmetic" k2="-1" k3="1"/>
<feColorMatrix type="matrix" values="0 0 0 0 0.146725 0 0 0 0 0.174672 0 0 0 0 0.2 0 0 0 0.08 0"/>
<feBlend mode="normal" in2="shape" result="effect2_innerShadow_627_331"/>
</filter>
</defs>
</svg>
