<svg width="100" height="104" viewBox="0 0 100 104" fill="none" xmlns="http://www.w3.org/2000/svg">
<rect width="57.735" height="57.735" transform="matrix(0.866025 0.5 -0.866025 0.5 50 46.188)" fill="url(#paint0_linear_608_236)"/>
<rect width="57.735" height="57.735" transform="matrix(0.866025 0.5 -0.866025 0.5 50 34.6411)" fill="url(#paint1_linear_608_236)"/>
<rect width="57.735" height="57.735" transform="matrix(0.866025 0.5 -0.866025 0.5 50 23.094)" fill="url(#paint2_linear_608_236)"/>
<rect width="57.735" height="57.735" transform="matrix(0.866025 0.5 -0.866025 0.5 50 11.5471)" fill="url(#paint3_linear_608_236)"/>
<rect width="57.735" height="57.735" transform="matrix(0.866025 0.5 -0.866025 0.5 50 0)" fill="url(#paint4_linear_608_236)"/>
<defs>
<linearGradient id="paint0_linear_608_236" x1="64.5294" y1="63.931" x2="12.5679" y2="63.931" gradientUnits="userSpaceOnUse">
<stop stop-color="white" stop-opacity="0.85"/>
<stop offset="1" stop-color="#56616B" stop-opacity="0.8"/>
</linearGradient>
<linearGradient id="paint1_linear_608_236" x1="63.8077" y1="63.2093" x2="3.71025" y2="65.6096" gradientUnits="userSpaceOnUse">
<stop stop-color="white"/>
<stop offset="1" stop-color="#56616B"/>
</linearGradient>
<linearGradient id="paint2_linear_608_236" x1="62.3643" y1="61.766" x2="3.71006" y2="64.1639" gradientUnits="userSpaceOnUse">
<stop stop-color="white"/>
<stop offset="1" stop-color="#56616B"/>
</linearGradient>
<linearGradient id="paint3_linear_608_236" x1="63.6961" y1="64.7644" x2="2.04742" y2="65.5866" gradientUnits="userSpaceOnUse">
<stop stop-color="white"/>
<stop offset="1" stop-color="#56616B"/>
</linearGradient>
<linearGradient id="paint4_linear_608_236" x1="58.0342" y1="57.4358" x2="-0.00601469" y2="58.2574" gradientUnits="userSpaceOnUse">
<stop stop-color="white"/>
<stop offset="1" stop-color="#56616B"/>
</linearGradient>
</defs>
</svg>
