<svg width="102" height="85" viewBox="0 0 102 85" fill="none" xmlns="http://www.w3.org/2000/svg">
<rect width="32.7165" height="32.7165" transform="matrix(0.5 -0.866025 1 2.20305e-08 0 84.999)" fill="url(#paint0_linear_608_243)"/>
<rect width="32.7165" height="32.7165" transform="matrix(0.5 0.866025 1 -2.20305e-08 0 28.332)" fill="url(#paint1_linear_608_243)"/>
<rect width="32.7165" height="32.7165" transform="matrix(0.5 -0.866025 1 2.20305e-08 0 28.332)" fill="url(#paint2_linear_608_243)"/>
<rect width="32.7165" height="32.7165" transform="matrix(0.5 -0.866025 1 2.20305e-08 24.5371 84.999)" fill="url(#paint3_linear_608_243)"/>
<rect width="32.7165" height="32.7165" transform="matrix(0.5 0.866025 1 -2.20305e-08 24.5371 28.332)" fill="url(#paint4_linear_608_243)"/>
<rect width="32.7165" height="32.7165" transform="matrix(0.5 -0.866025 1 2.20305e-08 24.5371 28.332)" fill="url(#paint5_linear_608_243)"/>
<rect width="32.7165" height="32.7165" transform="matrix(0.5 -0.866025 1 2.20305e-08 49.0742 84.999)" fill="url(#paint6_linear_608_243)"/>
<rect width="32.7165" height="32.7165" transform="matrix(0.5 0.866025 1 -2.20305e-08 49.0742 28.332)" fill="url(#paint7_linear_608_243)"/>
<rect width="32.7165" height="32.7165" transform="matrix(0.5 -0.866025 1 2.20305e-08 49.0742 28.332)" fill="url(#paint8_linear_608_243)"/>
<defs>
<linearGradient id="paint0_linear_608_243" x1="16.3583" y1="0" x2="16.3583" y2="32.7165" gradientUnits="userSpaceOnUse">
<stop stop-color="#56616B"/>
<stop offset="1" stop-color="#56616B" stop-opacity="0"/>
</linearGradient>
<linearGradient id="paint1_linear_608_243" x1="16.3583" y1="0" x2="16.3583" y2="32.7165" gradientUnits="userSpaceOnUse">
<stop stop-color="#56616B"/>
<stop offset="1" stop-color="#56616B" stop-opacity="0"/>
</linearGradient>
<linearGradient id="paint2_linear_608_243" x1="16.3583" y1="0" x2="16.3583" y2="32.7165" gradientUnits="userSpaceOnUse">
<stop stop-color="#56616B"/>
<stop offset="1" stop-color="#56616B" stop-opacity="0"/>
</linearGradient>
<linearGradient id="paint3_linear_608_243" x1="16.3583" y1="0" x2="16.3583" y2="32.7165" gradientUnits="userSpaceOnUse">
<stop stop-color="#56616B"/>
<stop offset="1" stop-color="#56616B" stop-opacity="0"/>
</linearGradient>
<linearGradient id="paint4_linear_608_243" x1="16.3583" y1="0" x2="16.3583" y2="32.7165" gradientUnits="userSpaceOnUse">
<stop stop-color="#56616B"/>
<stop offset="1" stop-color="#56616B" stop-opacity="0"/>
</linearGradient>
<linearGradient id="paint5_linear_608_243" x1="16.3583" y1="0" x2="16.3583" y2="32.7165" gradientUnits="userSpaceOnUse">
<stop stop-color="#56616B"/>
<stop offset="1" stop-color="#56616B" stop-opacity="0"/>
</linearGradient>
<linearGradient id="paint6_linear_608_243" x1="16.3583" y1="0" x2="16.3583" y2="32.7165" gradientUnits="userSpaceOnUse">
<stop stop-color="#56616B"/>
<stop offset="1" stop-color="#56616B" stop-opacity="0"/>
</linearGradient>
<linearGradient id="paint7_linear_608_243" x1="16.3583" y1="0" x2="16.3583" y2="32.7165" gradientUnits="userSpaceOnUse">
<stop stop-color="#56616B"/>
<stop offset="1" stop-color="#56616B" stop-opacity="0"/>
</linearGradient>
<linearGradient id="paint8_linear_608_243" x1="16.3583" y1="0" x2="16.3583" y2="32.7165" gradientUnits="userSpaceOnUse">
<stop stop-color="#56616B"/>
<stop offset="1" stop-color="#56616B" stop-opacity="0"/>
</linearGradient>
</defs>
</svg>
