<svg width="64" height="64" viewBox="0 0 64 64" fill="none" xmlns="http://www.w3.org/2000/svg">
<rect x="0.5" y="0.5" width="63" height="63" rx="31.5" fill="#EDEDED"/>
<rect x="0.5" y="0.5" width="63" height="63" rx="31.5" stroke="#BFBFBF"/>
<path d="M32 45.3337C30.9091 45.3337 29.8669 44.9008 27.7826 44.0352C22.5942 41.8805 20 40.8031 20 38.9909V26.3265M32 45.3337C33.0909 45.3337 34.1331 44.9008 36.2174 44.0352C41.4058 41.8805 44 40.8031 44 38.9909V26.3265M32 45.3337V32.2253M44 26.3265C44 27.1317 42.9312 27.6401 40.7937 28.657L36.8988 30.5099C34.4949 31.6535 33.2929 32.2253 32 32.2253M44 26.3265C44 25.5213 42.9312 25.0129 40.7937 23.996L38 22.667M20 26.3265C20 27.1317 21.0688 27.6401 23.2063 28.657L27.1012 30.5099C29.5051 31.6535 30.7071 32.2253 32 32.2253M20 26.3265C20 25.5213 21.0688 25.0129 23.2063 23.996L26 22.667M24 33.5361L26.6667 34.847" stroke="#666666" stroke-width="2" stroke-linecap="round" stroke-linejoin="round"/>
<path d="M32.9997 18.667C32.9997 18.1147 32.552 17.667 31.9997 17.667C31.4474 17.667 30.9997 18.1147 30.9997 18.667L32.9997 18.667ZM33.333 26.8958L34.0936 27.545L34.0936 27.545L33.333 26.8958ZM35.4269 25.9829C35.7855 25.5628 35.7356 24.9316 35.3156 24.5731C34.8955 24.2145 34.2643 24.2644 33.9057 24.6844L35.4269 25.9829ZM30.0936 24.6844C29.7351 24.2644 29.1039 24.2145 28.6838 24.5731C28.2637 24.9316 28.2139 25.5628 28.5724 25.9829L30.0936 24.6844ZM30.6663 26.8958L29.9057 27.545L29.9057 27.545L30.6663 26.8958ZM32.9997 28.0003L32.9997 18.667L30.9997 18.667L30.9997 28.0003H32.9997ZM34.0936 27.545L35.4269 25.9829L33.9057 24.6844L32.5724 26.2465L34.0936 27.545ZM28.5724 25.9829L29.9057 27.545L31.4269 26.2465L30.0936 24.6844L28.5724 25.9829ZM32.5724 26.2465C32.239 26.6371 32.0541 26.8504 31.9106 26.9786C31.7814 27.0941 31.8362 27.0003 31.9997 27.0003L31.9997 29.0003C32.5537 29.0003 32.9608 28.7224 33.2435 28.4697C33.512 28.2298 33.7985 27.8908 34.0936 27.545L32.5724 26.2465ZM29.9057 27.545C30.2009 27.8908 30.4874 28.2298 30.7558 28.4697C31.0385 28.7224 31.4457 29.0003 31.9997 29.0003L31.9997 27.0003C32.1632 27.0003 32.2179 27.0941 32.0887 26.9786C31.9452 26.8504 31.7603 26.6371 31.4269 26.2465L29.9057 27.545Z" fill="#666666"/>
</svg>
