<svg width="136" height="41" viewBox="0 0 136 41" fill="none" xmlns="http://www.w3.org/2000/svg">
<path d="M19.2582 16.7377C19.1447 14.136 21.2575 11.75 24 11.75C25.0745 11.75 26.067 12.1075 26.8629 12.7094L29.8895 12.2582C30.1672 12.2168 30.4449 12.334 30.6089 12.562C30.7729 12.79 30.7958 13.0905 30.6682 13.3407L28.7346 17.1331C28.4044 23.8809 22.8294 29.25 16 29.25C13.7052 29.25 11.5219 28.7468 9.62451 27.6492C9.34284 27.4863 9.19837 27.1603 9.26684 26.8422C9.33531 26.5241 9.60109 26.2864 9.92484 26.2538C10.6275 26.183 11.6893 25.9806 12.5559 25.665C12.9928 25.5059 13.3338 25.3344 13.5515 25.1675C13.5727 25.1513 13.5917 25.1359 13.6086 25.1215C10.5742 21.7838 9.50804 16.6716 10.7675 12.3934C10.8505 12.1114 11.0906 11.904 11.3816 11.8627C11.6726 11.8214 11.961 11.9539 12.1191 12.2016C13.7289 14.7231 16.3663 16.5951 19.2582 16.7377Z" fill="#56616B"/>
<path d="M68 9.75C62.0629 9.75 57.25 14.6249 57.25 20.6383C57.25 25.6824 60.6363 29.9254 65.2318 31.1623C65.5486 31.2475 65.7069 31.2902 65.8241 31.1989C65.9412 31.1077 65.9412 30.9352 65.9412 30.5903V29.1202C65.9412 28.5842 65.9381 28.5688 65.3686 28.4825C65.0726 28.4377 64.7839 28.3674 64.5039 28.2703C63.4369 27.9005 62.5565 27.1627 61.9143 26.0981C61.6984 25.7401 61.8098 25.2725 62.1633 25.0538C62.5167 24.8351 62.9783 24.9479 63.1943 25.3059C63.6716 26.0972 64.284 26.5883 64.9896 26.8329C65.2091 26.909 65.6269 27.0913 65.8278 26.9296C66.0016 26.7897 65.9412 26.4661 65.9412 26.2645C65.9412 25.901 66.0494 25.585 66.2238 25.2995C66.3434 25.1037 66.2615 24.8258 66.0453 24.7644C64.2553 24.256 63 23.4386 63 20.7271C63 20.0222 63.2236 19.3594 63.6165 18.7826C63.8121 18.4955 63.8072 18.5221 63.7254 18.1827C63.5817 17.586 63.5702 16.9573 63.7308 16.3709C63.7836 16.1781 63.8968 16.0657 64.1017 16.0874C64.3674 16.1156 64.8275 16.2414 65.51 16.6819C65.7781 16.855 65.9122 16.9415 66.0303 16.9608C66.1484 16.9802 66.3062 16.9397 66.622 16.8586C67.0537 16.7477 67.4986 16.6882 68 16.6882C68.5014 16.6882 68.9463 16.7477 69.378 16.8586C69.6938 16.9397 69.8516 16.9802 69.9697 16.9608C70.0878 16.9415 70.2219 16.855 70.49 16.6819C71.1725 16.2414 71.6326 16.1156 71.8983 16.0874C72.1032 16.0657 72.2164 16.1781 72.2692 16.3709C72.4298 16.9573 72.4183 17.586 72.2746 18.1827C72.1928 18.5221 72.1879 18.4955 72.3834 18.7826C72.7764 19.3594 73 20.0222 73 20.7271C73 23.4386 71.7447 24.256 69.9547 24.7644C69.7385 24.8258 69.6566 25.1037 69.7762 25.2995C69.9506 25.585 70.0588 25.901 70.0588 26.2645V30.5903C70.0588 30.9352 70.0588 31.1077 70.1759 31.1989C70.2931 31.2902 70.4514 31.2475 70.7682 31.1623C75.3637 29.9254 78.75 25.6824 78.75 20.6383C78.75 14.6249 73.9371 9.75 68 9.75Z" fill="#56616B"/>
<path d="M116 16.75C113.375 16.75 110.967 17.5175 109.197 18.7958C107.428 20.0734 106.25 21.9037 106.25 24C106.25 26.0963 107.428 27.9266 109.197 29.2042C110.967 30.4825 113.375 31.25 116 31.25C118.625 31.25 121.033 30.4825 122.803 29.2042C124.572 27.9266 125.75 26.0963 125.75 24C125.75 21.9037 124.572 20.0734 122.803 18.7958C121.033 17.5175 118.625 16.75 116 16.75Z" fill="#56616B"/>
<path fill-rule="evenodd" clip-rule="evenodd" d="M111.908 25.789C112.163 25.4623 112.634 25.4038 112.961 25.6585C113.823 26.3302 114.872 26.7199 116 26.7199C117.129 26.7199 118.177 26.3302 119.039 25.6585C119.366 25.4038 119.837 25.4623 120.092 25.789C120.346 26.1157 120.288 26.587 119.961 26.8416C118.853 27.7053 117.484 28.2199 116 28.2199C114.516 28.2199 113.147 27.7053 112.039 26.8416C111.712 26.587 111.654 26.1157 111.908 25.789Z" fill="white"/>
<path d="M123 9.75C121.481 9.75 120.25 10.9812 120.25 12.5C120.25 14.0188 121.481 15.25 123 15.25C124.519 15.25 125.75 14.0188 125.75 12.5C125.75 10.9812 124.519 9.75 123 9.75Z" fill="#56616B"/>
<path d="M108.14 16.75C106.551 16.75 105.25 18.0283 105.25 19.6201C105.25 20.7307 105.885 21.6893 106.805 22.1659L107.299 22.4221L110.933 18.6856L110.65 18.1944C110.151 17.3309 109.213 16.75 108.14 16.75Z" fill="#56616B"/>
<path d="M123.86 16.75C122.787 16.75 121.849 17.3309 121.351 18.1944L121.067 18.6856L124.701 22.4221L125.196 22.1659C126.116 21.6893 126.75 20.7307 126.75 19.6201C126.75 18.0283 125.45 16.75 123.86 16.75Z" fill="#56616B"/>
<path fill-rule="evenodd" clip-rule="evenodd" d="M120.946 11.75L121 11.75C121.414 11.75 121.75 12.0858 121.75 12.5C121.75 12.9142 121.414 13.25 121 13.25C119.8 13.25 118.976 13.2516 118.357 13.3348C117.759 13.4152 117.466 13.559 117.263 13.7626C117.059 13.9661 116.915 14.2591 116.835 14.8568C116.752 15.476 116.75 16.3003 116.75 17.5C116.75 17.9142 116.414 18.25 116 18.25C115.586 18.25 115.25 17.9142 115.25 17.5L115.25 17.4463C115.25 16.3135 115.25 15.3877 115.348 14.6569C115.451 13.8929 115.673 13.2306 116.202 12.7019C116.731 12.1732 117.393 11.9509 118.157 11.8482C118.888 11.75 119.813 11.75 120.946 11.75Z" fill="#56616B"/>
<path fill-rule="evenodd" clip-rule="evenodd" d="M111.5 22C111.5 21.1716 112.172 20.5 113 20.5C113.821 20.5 114.509 21.1754 114.509 22C114.509 22.8284 113.837 23.5 113.009 23.5H113C112.172 23.5 111.5 22.8284 111.5 22ZM117.491 22C117.491 21.1716 118.163 20.5 118.991 20.5C119.812 20.5 120.5 21.1754 120.5 22C120.5 22.8284 119.828 23.5 119 23.5H118.991C118.163 23.5 117.491 22.8284 117.491 22Z" fill="white"/>
</svg>
