<svg width="160" height="20" viewBox="0 0 160 20" fill="none" xmlns="http://www.w3.org/2000/svg">
<g clip-path="url(#clip0_483_111)">
<path d="M45.8345 4.6699C45.1923 4.06759 44.4246 3.60829 43.5839 3.32353C42.7079 3.02759 41.7869 2.87944 40.8602 2.88543H36.2934C35.8265 2.88543 35.2984 2.91036 34.7092 2.96023C34.098 3.0141 33.494 3.12867 32.9065 3.30216C32.2828 3.48583 31.6846 3.74425 31.1257 4.07152C30.529 4.42416 30.0033 4.88044 29.5743 5.41789C29.0808 6.04548 28.707 6.75494 28.4708 7.51224C28.1948 8.34571 28.0564 9.34658 28.0557 10.5149C28.0549 11.6831 28.1933 12.684 28.4708 13.5175C28.707 14.2748 29.0808 14.9842 29.5743 15.6118C30.0033 16.1493 30.529 16.6056 31.1257 16.9582C31.6846 17.2855 32.2828 17.5439 32.9065 17.7275C33.494 17.901 34.098 18.0156 34.7092 18.0695C35.2992 18.1201 35.8272 18.145 36.2934 18.1443H39.7021C40.1391 18.1443 40.6235 18.1229 41.1552 18.0802C41.7114 18.0337 42.263 17.9444 42.8049 17.813C43.3776 17.676 43.9369 17.49 44.4765 17.2574C45.0213 17.023 45.529 16.7136 45.9842 16.3384C46.4559 15.9462 46.8583 15.4804 47.175 14.96C47.5278 14.3686 47.758 13.7151 47.8524 13.0366H43.4604C43.2856 13.5068 43.0088 13.838 42.6301 14.0304C42.2513 14.2227 41.6541 14.3189 40.8383 14.3189H35.1571C34.7916 14.3261 34.4281 14.2644 34.0865 14.1372C33.7968 14.0269 33.5357 13.8554 33.3217 13.635C33.1123 13.4133 32.9457 13.1562 32.83 12.8763C32.7018 12.569 32.603 12.2506 32.5351 11.9253H47.8524C47.8666 11.7832 47.8819 11.6187 47.8961 11.4338C47.8961 11.2767 47.8961 11.1026 47.907 10.9102C47.9179 10.7179 47.9179 10.501 47.9179 10.2584C47.9179 8.98968 47.7322 7.89264 47.3607 6.96728C47.0303 6.10132 46.5093 5.31701 45.8345 4.6699ZM32.5383 9.12574C32.6063 8.80048 32.705 8.4821 32.8333 8.17474C32.949 7.89486 33.1155 7.63782 33.325 7.41607C33.539 7.19564 33.8001 7.02415 34.0897 6.91385C34.4314 6.78668 34.7949 6.72501 35.1604 6.7322H40.8416C41.6719 6.7322 42.3129 6.91385 42.7645 7.27716C43.216 7.64046 43.4491 8.25666 43.4637 9.12574H32.5383Z" fill="black"/>
<path d="M63.8831 13.1433C64.4159 13.0863 64.9424 12.9826 65.4563 12.8334C65.9728 12.6841 66.4711 12.4798 66.9421 12.2244C67.4129 11.9702 67.8374 11.6416 68.1986 11.252C68.5737 10.8426 68.8665 10.3677 69.0617 9.85218C69.2834 9.24205 69.3896 8.59753 69.3752 7.95017C69.3752 6.93861 69.1749 6.10514 68.7743 5.44977C68.3995 4.82039 67.8747 4.28885 67.2448 3.90037C66.6141 3.51853 65.9184 3.2507 65.1908 3.10965C64.4756 2.96365 63.7473 2.88847 63.0167 2.88525H50.7617V18.1441H54.8915V13.2288H56.9203C57.4598 14.2124 58.2407 15.0496 59.1928 15.6651C60.1849 16.314 61.2664 16.8213 62.4049 17.1717C63.572 17.5355 64.7719 17.7896 65.9884 17.9304C67.1121 18.0665 68.243 18.1379 69.3752 18.1441V14.105H68.1953C66.2426 14.105 64.6438 14.0195 63.3991 13.8485C62.1543 13.6776 61.1601 13.471 60.4164 13.2288H62.383C62.8842 13.2268 63.385 13.1983 63.8831 13.1433ZM54.8915 9.80944V6.73202H63.1478C63.8171 6.73202 64.2942 6.86381 64.579 7.12739C64.8638 7.39096 65.0058 7.76495 65.0051 8.24936C65.0097 8.47223 64.9571 8.69268 64.8521 8.89055C64.7472 9.08842 64.5932 9.25739 64.4042 9.38202C64.0036 9.66697 63.3809 9.80944 62.536 9.80944H54.8915Z" fill="black"/>
<path d="M90.5846 5.41771C90.1556 4.88026 89.6299 4.42398 89.0332 4.07134C88.4744 3.74389 87.8762 3.48546 87.2524 3.30199C86.6649 3.12849 86.0609 3.01393 85.4497 2.96005C84.8597 2.91019 84.3317 2.88525 83.8655 2.88525H72.2158V18.1441H83.8622C84.3284 18.1441 84.8564 18.1192 85.4464 18.0693C86.0576 18.0154 86.6616 17.9009 87.2491 17.7274C87.8729 17.5439 88.4711 17.2855 89.0299 16.958C89.6266 16.6054 90.1523 16.1491 90.5813 15.6117C91.0748 14.9841 91.4486 14.2746 91.6848 13.5173C91.9616 12.6838 92.0999 11.683 92.0999 10.5147C92.0999 9.3464 91.9616 8.34553 91.6848 7.51206C91.4496 6.75499 91.077 6.04554 90.5846 5.41771ZM87.6129 11.9252C87.5425 12.3523 87.3972 12.7644 87.1835 13.1433C86.9861 13.493 86.7002 13.7873 86.3532 13.9981C86.0036 14.2119 85.552 14.3187 84.9985 14.3187H76.3675V6.73202H84.9985C85.5528 6.73202 86.0043 6.83888 86.3532 7.05259C86.6984 7.26094 86.984 7.55134 87.1835 7.89674C87.3971 8.27159 87.5413 8.68034 87.6096 9.1042C87.7699 10.038 87.7699 10.9914 87.6096 11.9252H87.6129Z" fill="black"/>
<path d="M99.4017 7.89674C99.604 7.54979 99.8935 7.25919 100.243 7.05259C100.6 6.83888 101.055 6.73202 101.609 6.73202H107.29C108.033 6.73202 108.608 6.91012 109.016 7.2663C109.424 7.62248 109.686 8.10689 109.803 8.71952H114.238C114.123 7.92828 113.879 7.16004 113.517 6.44352C113.212 5.84942 112.81 5.30803 112.326 4.8407C111.885 4.41764 111.375 4.06759 110.819 3.8042C110.294 3.55556 109.745 3.35868 109.18 3.2165C108.649 3.08358 108.109 2.99422 107.563 2.94937C107.032 2.90662 106.555 2.88525 106.132 2.88525H102.745C102.279 2.88525 101.751 2.91019 101.161 2.96005C100.55 3.01393 99.9455 3.12849 99.358 3.30199C98.7302 3.48673 98.1275 3.74506 97.563 4.07134C96.9638 4.42055 96.4374 4.87735 96.0116 5.41771C95.525 6.04798 95.1552 6.75684 94.9191 7.51206C94.6423 8.34553 94.5039 9.3464 94.5039 10.5147C94.5039 11.683 94.6423 12.6838 94.9191 13.5173C95.1552 14.2725 95.525 14.9814 96.0116 15.6117C96.4374 16.152 96.9638 16.6088 97.563 16.958C98.1264 17.2841 98.728 17.5424 99.3548 17.7274C99.9422 17.9009 100.546 18.0154 101.157 18.0693C101.747 18.1199 102.275 18.1448 102.742 18.1441H105.691C106.041 18.1441 106.42 18.1299 106.828 18.1014C107.256 18.07 107.683 18.0165 108.106 17.9411C108.561 17.8602 109.01 17.7495 109.45 17.6098C109.907 17.4655 110.347 17.2719 110.761 17.0328L111.263 18.1441H114.235V9.72396H102.352V12.5449H109.846C109.744 13.0453 109.461 13.4929 109.049 13.8058C108.62 14.1477 108.063 14.3187 107.377 14.3187H101.605C101.053 14.3187 100.597 14.2119 100.24 13.9981C99.8883 13.7893 99.5984 13.4947 99.3985 13.1433C99.1869 12.7638 99.0428 12.3519 98.9724 11.9252C98.8121 10.9914 98.8121 10.038 98.9724 9.1042C99.0427 8.68039 99.188 8.2718 99.4017 7.89674Z" fill="black"/>
<path d="M134.855 4.66988C134.213 4.06754 133.445 3.60826 132.604 3.32351C131.729 3.028 130.809 2.87986 129.884 2.8854H125.313C124.847 2.8854 124.319 2.91034 123.729 2.9602C123.118 3.01387 122.514 3.12844 121.926 3.30214C121.302 3.4856 120.703 3.74402 120.144 4.07149C119.548 4.42416 119.023 4.88045 118.594 5.41786C118.1 6.04563 117.726 6.75502 117.489 7.51221C117.213 8.34568 117.075 9.34655 117.074 10.5148C117.073 11.6831 117.212 12.684 117.489 13.5175C117.726 14.2746 118.1 14.984 118.594 15.6118C119.023 16.1492 119.548 16.6055 120.144 16.9582C120.703 17.2856 121.302 17.5441 121.926 17.7275C122.514 17.9012 123.118 18.0158 123.729 18.0695C124.318 18.12 124.846 18.145 125.313 18.1443H128.721C129.158 18.1443 129.642 18.1229 130.175 18.0801C130.731 18.0336 131.282 17.9443 131.823 17.813C132.396 17.6761 132.956 17.4902 133.495 17.2574C134.04 17.0232 134.548 16.7138 135.003 16.3384C135.475 15.9464 135.877 15.4806 136.194 14.96C136.547 14.3687 136.777 13.7151 136.872 13.0366H132.479C132.305 13.5068 132.028 13.838 131.65 14.0304C131.272 14.2227 130.673 14.3189 129.857 14.3189H124.176C123.811 14.3261 123.447 14.2644 123.106 14.1372C122.816 14.0272 122.555 13.8557 122.341 13.635C122.132 13.4132 121.965 13.1562 121.85 12.8763C121.721 12.5692 121.621 12.2507 121.554 11.9253H136.872C136.886 11.7832 136.9 11.6186 136.915 11.4338C136.915 11.2767 136.915 11.1025 136.927 10.9102C136.939 10.7179 136.937 10.5009 136.937 10.2584C136.937 8.98966 136.751 7.89262 136.38 6.96725C136.05 6.10166 135.529 5.31747 134.855 4.66988ZM121.558 9.12572C121.626 8.80029 121.725 8.48187 121.854 8.17471C121.97 7.89484 122.136 7.63779 122.346 7.41604C122.56 7.19537 122.821 7.02384 123.11 6.91383C123.452 6.78659 123.815 6.72491 124.18 6.73217H129.861C130.692 6.73217 131.333 6.91383 131.784 7.27713C132.236 7.64044 132.469 8.25664 132.483 9.12572H121.558Z" fill="black"/>
<path d="M152.422 13.8485C151.176 13.6776 150.183 13.471 149.44 13.2288H151.407C151.907 13.2267 152.406 13.1982 152.903 13.1433C153.435 13.0863 153.962 12.9826 154.476 12.8334C154.992 12.6843 155.491 12.48 155.962 12.2244C156.433 11.9705 156.857 11.6419 157.218 11.252C157.594 10.8429 157.886 10.3679 158.081 9.85218C158.305 9.24246 158.413 8.59783 158.399 7.95017C158.399 6.93861 158.199 6.10514 157.798 5.44977C157.423 4.82062 156.898 4.28915 156.269 3.90037C155.638 3.51852 154.942 3.25069 154.214 3.10965C153.498 2.96359 152.77 2.88841 152.039 2.88525H139.781V18.1441H143.911V13.2288H145.944C146.483 14.2125 147.264 15.0497 148.216 15.6651C149.208 16.3135 150.289 16.8208 151.428 17.1717C152.595 17.5357 153.795 17.7897 155.012 17.9304C156.136 18.0666 157.267 18.1379 158.399 18.1441V14.105H157.215C155.266 14.105 153.668 14.0195 152.422 13.8485ZM143.911 9.80944V6.73202H152.172C152.842 6.73202 153.318 6.86381 153.602 7.12739C153.885 7.39096 154.028 7.76495 154.029 8.24936C154.033 8.47218 153.981 8.69253 153.876 8.89034C153.771 9.08816 153.617 9.25718 153.428 9.38202C153.027 9.66697 152.404 9.80944 151.559 9.80944H143.911Z" fill="black"/>
<path d="M22.248 1.6676C21.6482 0.590508 20.7207 0.0337952 19.4632 0.029521C17.808 0.0231097 16.1473 0.029521 14.4888 0.0252468C13.2871 0.0252468 12.377 0.522121 11.7444 1.50946C11.2746 2.24355 10.8365 3.00008 10.3514 3.7267C9.94281 4.34004 9.97558 4.9021 10.3733 5.50903C11.0288 6.50706 11.6472 7.52965 12.2819 8.5405C13.0587 9.77681 13.9972 9.77574 14.786 8.5234C16.0239 6.56155 17.2431 4.58794 18.4821 2.62716C19.1157 1.62486 20.0531 1.65692 20.63 2.69875C21.4133 4.12419 22.1781 5.56566 22.9746 6.98576C23.2553 7.48798 23.2346 7.9325 22.9156 8.39411C22.4589 9.05661 22.012 9.72445 21.563 10.3923C20.1901 12.4318 18.8167 14.4717 17.4431 16.5119C16.7569 17.5248 15.9343 17.5045 15.2656 16.4702C15.1564 16.296 15.0471 16.1176 14.9379 15.9423C11.8074 10.9137 8.67511 5.88445 5.54099 0.85444C4.81992 -0.301729 3.79293 -0.286769 3.12212 0.884359C2.21422 2.48184 1.31069 4.07825 0.419187 5.68321C-0.147838 6.70687 -0.147838 7.74978 0.469444 8.74887C2.40177 11.8733 4.34503 14.9913 6.29921 18.1029C7.09457 19.367 8.28871 19.9911 9.81061 19.9975C10.6978 19.9975 11.5849 19.9975 12.472 19.9975C13.3362 19.9975 14.2004 19.9975 15.0646 19.9975C16.5854 19.9975 17.773 19.3905 18.6011 18.1457C20.5866 15.1609 22.566 12.1725 24.5391 9.18056C25.2208 8.14727 25.2438 7.07873 24.6483 6.00056C23.8544 4.55375 23.0543 3.10943 22.248 1.6676Z" fill="black"/>
</g>
<defs>
<clipPath id="clip0_483_111">
<rect width="158.4" height="20" fill="white"/>
</clipPath>
</defs>
</svg>
